<svg  viewBox="0 0 118 65" fill="none" xmlns="http://www.w3.org/2000/svg">
<g id="Group">
<path id="Vector" d="M60.4778 1.05817C60.438 1.16975 60.3982 1.33712 60.3982 1.41682C60.3982 1.58419 60.1354 1.65592 57.6109 2.166C56.5756 2.37322 55.8987 2.54856 55.9067 2.60435C55.9146 2.65217 55.9226 2.77969 55.9306 2.89127C55.9385 3.0427 55.9783 3.09052 56.1297 3.09052C56.4243 3.09052 58.6143 2.6442 60.6132 2.17397C61.537 1.95878 61.744 1.6081 61.1946 1.17772C60.7645 0.835006 60.5734 0.803127 60.4778 1.05817Z" fill="black"/>
<path id="Vector_2" d="M65.3925 1.89925C65.3208 2.0746 65.3368 2.3934 65.4084 2.44122C65.5836 2.5528 71.4449 3.31793 71.5643 3.24619C71.6041 3.21431 71.636 3.07882 71.636 2.93536V2.66438L71.0228 2.57671C70.6804 2.52889 70.0831 2.44919 69.6849 2.40934C68.0444 2.22603 65.9898 1.92316 65.5757 1.80361C65.504 1.7797 65.4244 1.82752 65.3925 1.89925Z" fill="black"/>
<path id="Vector_3" d="M50.4129 3.02302C47.4663 3.73235 45.0374 4.36995 44.9578 4.45762C44.9259 4.49747 44.9339 4.64093 44.9737 4.79237C45.0374 5.01553 45.0692 5.04741 45.2206 5.00756C45.7462 4.84816 50.7474 3.60483 50.8509 3.60483C51.0898 3.60483 51.1694 3.48528 51.1216 3.22227C51.0739 2.99911 51.042 2.96723 50.819 2.9752C50.6836 2.98317 50.5005 2.99911 50.4129 3.02302Z" fill="black"/>
<path id="Vector_4" d="M78.5325 3.78018C78.5086 3.83597 78.4847 3.97943 78.4608 4.09898C78.421 4.33808 78.3732 4.31417 79.5598 4.56124C80.7066 4.80034 82.2516 5.1829 83.3028 5.49373C83.8284 5.64517 84.3142 5.7966 84.3858 5.81254C84.4814 5.83645 84.5451 5.77269 84.6168 5.55749C84.6725 5.39809 84.6964 5.25463 84.6805 5.24666C84.6327 5.20681 83.3426 4.81628 82.3869 4.56124C81.3756 4.29026 80.8261 4.16274 79.6474 3.92364C79.2094 3.83597 78.7953 3.7483 78.7077 3.71642C78.6281 3.69251 78.5484 3.71642 78.5325 3.78018Z" fill="black"/>
<path id="Vector_5" d="M36.7871 7.35079C35.3934 7.97245 32.9804 9.13608 32.7097 9.31142C32.5424 9.423 32.5424 9.43894 32.6539 9.6621C32.7256 9.79759 32.8132 9.9012 32.861 9.9012C32.9008 9.9012 33.6255 9.56646 34.4696 9.15202C35.3138 8.74554 36.5561 8.16373 37.233 7.86884C37.9099 7.57395 38.4754 7.31891 38.4913 7.31094C38.4992 7.30297 38.4674 7.18342 38.4196 7.04793C38.3559 6.86462 38.2842 6.79289 38.1648 6.80086C38.0692 6.80086 37.448 7.04793 36.7871 7.35079Z" fill="black"/>
<path id="Vector_6" d="M91.1151 8.00431C91.0434 8.09995 90.9877 8.22747 90.9877 8.28327C90.9877 8.33906 91.7522 8.76147 92.6839 9.2317C93.6077 9.69397 94.85 10.3475 95.4394 10.6823L96.4985 11.288L96.6498 11.0887C96.7295 10.9851 96.8011 10.8576 96.8011 10.8098C96.8011 10.6823 95.0173 9.67803 93.0025 8.66583C92.0787 8.20356 91.3062 7.82897 91.2823 7.82897C91.2584 7.82897 91.1788 7.90867 91.1151 8.00431Z" fill="black"/>
<path id="Vector_7" d="M25.6459 13.5117C24.3717 14.3884 22.9622 15.4245 22.1578 16.0621L21.3774 16.6837L21.5446 16.9149C21.6402 17.0504 21.7357 17.154 21.7676 17.154C21.7995 17.154 22.1976 16.8511 22.6595 16.4925C23.5037 15.823 25.2716 14.5398 26.2591 13.8862C26.5617 13.687 26.8006 13.4877 26.8006 13.4479C26.8006 13.3124 26.5617 13.0095 26.4582 13.0175C26.4025 13.0175 26.0441 13.2407 25.6459 13.5117Z" fill="black"/>
<path id="Vector_8" d="M102.543 14.755C102.447 14.8825 102.376 15.018 102.376 15.0579C102.376 15.0897 102.654 15.3129 102.989 15.552C103.714 16.0701 105.872 17.7916 106.604 18.4451C106.891 18.7002 107.162 18.9074 107.21 18.9074C107.249 18.9074 107.369 18.8118 107.48 18.7002L107.672 18.493L107.464 18.3256C107.345 18.23 106.939 17.8793 106.549 17.5445C105.856 16.9547 104.072 15.544 103.156 14.8666L102.702 14.5239L102.543 14.755Z" fill="black"/>
<path id="Vector_9" d="M111.122 19.789C110.556 20.5701 110.54 20.5781 110.301 20.5143C109.935 20.4027 109.752 20.5303 109.752 20.8969V21.1998L108.876 21.6301C108.398 21.8692 108 22.0844 108 22.1083C108 22.1323 108.048 22.2279 108.111 22.3076C108.231 22.467 108.876 22.5706 109.951 22.5865L110.509 22.5945L111.44 23.7422L112.372 24.8899L111.719 25.2406C111.361 25.4398 110.389 25.9579 109.553 26.3962C107.968 27.2331 107.833 27.3527 108.151 27.6396C108.311 27.783 108.39 27.7751 110.994 27.4563C112.468 27.265 113.79 27.0976 113.933 27.0737C114.18 27.0339 114.22 27.0737 115.12 28.1337C116.075 29.2655 116.505 29.6321 117.015 29.7198C117.246 29.7676 117.333 29.7437 117.477 29.6002C117.62 29.4568 117.652 29.3532 117.62 29.0503C117.564 28.5083 117.405 28.2294 116.434 27.0259L115.55 25.934L116.394 23.0966C117.206 20.3868 117.238 20.2433 117.118 20.06C117.047 19.9564 116.927 19.8767 116.856 19.8927C116.784 19.9086 116.059 20.7773 115.239 21.8294C114.427 22.8814 113.734 23.7342 113.702 23.7263C113.662 23.7103 112.292 22.0924 111.926 21.6222C111.854 21.5265 111.854 21.2715 111.942 20.4346C112.038 19.4942 112.038 19.3348 111.934 19.1833C111.87 19.0797 111.791 19 111.751 19C111.719 19 111.432 19.3587 111.122 19.789Z" fill="black"/>
<path id="Vector_10" d="M16.1293 21.7686C16.0656 21.8563 15.5798 22.4541 15.0542 23.0997C14.0269 24.3669 13.35 25.2516 12.7925 26.0566L12.4421 26.5587L12.6333 26.7181C12.7368 26.8058 12.8642 26.8695 12.92 26.8536C12.9677 26.8456 13.4854 26.1921 14.0747 25.403C14.664 24.614 15.5081 23.53 15.9541 22.996C16.4001 22.462 16.7664 21.9918 16.7664 21.944C16.7664 21.8483 16.4479 21.6172 16.3284 21.6172C16.2886 21.6252 16.193 21.6889 16.1293 21.7686Z" fill="black"/>
<path id="Vector_11" d="M8.66736 32.871C8.10195 33.931 6.98706 36.3698 6.48536 37.6371C6.23053 38.2827 6.23053 38.2986 6.38183 38.4102C6.70834 38.6493 6.79594 38.5297 7.37727 37.1589C7.68785 36.4336 8.25326 35.1823 8.65144 34.3773C9.04165 33.5723 9.36019 32.8869 9.36019 32.855C9.36019 32.7992 9.00183 32.6159 8.88238 32.6159C8.84256 32.6159 8.747 32.7355 8.66736 32.871Z" fill="black"/>
<path id="Vector_12" d="M3.94495 45.1449C3.75382 45.5992 2.44777 51.0746 2.51944 51.1384C2.53537 51.1543 2.67872 51.1862 2.83799 51.2181L3.11672 51.2659L3.29989 50.453C3.39545 49.9987 3.72197 48.6278 4.03255 47.4084C4.33517 46.181 4.55816 45.1529 4.5263 45.121C4.48649 45.0971 4.36703 45.0493 4.23961 45.0174C4.06441 44.9775 4.00866 45.0015 3.94495 45.1449Z" fill="black"/>
<path id="Vector_13" d="M1.31694 58.0963C1.31694 58.1361 1.2612 58.4789 1.19749 58.8774C0.934686 60.5033 0.528539 64.2014 0.600212 64.2811C0.632067 64.321 0.783376 64.3369 0.926722 64.321L1.19749 64.2971L1.2612 63.6595C1.32491 62.9421 1.66734 60.1685 1.83458 58.9571C1.92218 58.3434 1.92218 58.1521 1.85051 58.1043C1.72309 58.0246 1.31694 58.0246 1.31694 58.0963Z" fill="black"/>
</g>
</svg>
