<svg width='30px' height='30px' viewBox="0 0 10 11" fill="none" xmlns="http://www.w3.org/2000/svg">
<path id="Vector" d="M3.12176 0.789046C2.55633 1.57012 2.54041 1.57808 2.30149 1.51432C1.93516 1.40274 1.752 1.53026 1.752 1.89689V2.19975L0.875992 2.63014C0.39817 2.86924 -1.52588e-05 3.08443 -1.52588e-05 3.10834C-1.52588e-05 3.13225 0.047767 3.22789 0.111477 3.30759C0.230932 3.467 0.875992 3.57061 1.95109 3.58655L2.50855 3.59452L3.4403 4.74221L4.37206 5.8899L3.71903 6.24059C3.36067 6.43984 2.3891 6.95789 1.55291 7.39625C-0.0318701 8.23311 -0.167253 8.35266 0.151295 8.63958C0.310569 8.78304 0.390206 8.77507 2.99434 8.45627C4.46762 8.26499 5.7896 8.09762 5.93294 8.07371C6.17982 8.03386 6.21964 8.07371 7.11953 9.13373C8.07518 10.2655 8.50522 10.6321 9.0149 10.7198C9.24584 10.7676 9.33344 10.7437 9.47679 10.6002C9.62014 10.4568 9.65199 10.3532 9.62014 10.0503C9.56439 9.50832 9.40512 9.22937 8.43355 8.02589L7.54957 6.93398L8.39373 4.09663C9.20602 1.3868 9.23788 1.24334 9.11842 1.06003C9.04675 0.956418 8.92729 0.876718 8.85562 0.892657C8.78395 0.908598 8.05925 1.77734 7.23899 2.82939C6.42669 3.88144 5.73385 4.73424 5.702 4.72627C5.66218 4.71033 4.29242 3.0924 3.92609 2.62217C3.85442 2.52653 3.85442 2.27148 3.94202 1.43462C4.03758 0.494153 4.03758 0.334751 3.93405 0.18332C3.87034 0.0797091 3.79071 7.62939e-06 3.75089 7.62939e-06C3.71903 7.62939e-06 3.43234 0.358662 3.12176 0.789046Z" fill="black"/>
</svg>
